#define hatch_width 8
#define hatch_height 8
static char hatch_bits[] = {
   0x88, 0x88, 0x88, 0xff, 0x88, 0x88, 0x88, 0xff};
