#define intleave_width 8
#define intleave_height 8
static char intleave_bits[] = {
   0xaa, 0x55, 0xaa, 0x55, 0xaa, 0x55, 0xaa, 0x55};
