#define slsh_width 8
#define slsh_height 8
static char slsh_bits[] = {
   0xcc, 0x66, 0x33, 0x99, 0xcc, 0x66, 0x33, 0x99};
