#define widedot_width 8
#define widedot_height 8
static char widedot_bits[] = {
   0x44, 0x00, 0x11, 0x00, 0x44, 0x00, 0x11, 0x00};
