#define xhatch_width 8
#define xhatch_height 8
static char xhatch_bits[] = {
   0x44, 0xaa, 0x11, 0xaa, 0x44, 0xaa, 0x11, 0xaa};
