#define bkslsh_width 8
#define bkslsh_height 8
static char bkslsh_bits[] = {
   0x99, 0x33, 0x66, 0xcc, 0x99, 0x33, 0x66, 0xcc};
