#define line_width 8
#define line_height 8
static char line_bits[] = {
   0x00, 0x00, 0xff, 0xff, 0x00, 0x00, 0xff, 0xff};
