#define xbgi_a_width 32
#define xbgi_a_height 32
static char xbgi_a_bits[] = {
   0xff, 0xff, 0xff, 0xff, 0x01, 0x00, 0x00, 0x80, 0x01, 0x00, 0x00, 0x80,
   0x01, 0x00, 0x00, 0x80, 0x01, 0x00, 0x00, 0x80, 0xf9, 0x7c, 0xfe, 0x9f,
   0x71, 0x30, 0x00, 0x80, 0xe1, 0x10, 0xfe, 0x9f, 0xc1, 0x09, 0x00, 0x80,
   0xc1, 0x07, 0xfe, 0x9f, 0x81, 0x07, 0x00, 0x80, 0x81, 0x07, 0xfe, 0x9f,
   0x81, 0x0f, 0x00, 0x80, 0x41, 0x1e, 0xfe, 0x9f, 0x21, 0x1c, 0x00, 0x80,
   0x31, 0x38, 0xfe, 0x9f, 0xf9, 0x7c, 0x00, 0x80, 0x01, 0x00, 0x00, 0x80,
   0x01, 0x7e, 0xb8, 0x9e, 0x79, 0xcc, 0xc4, 0x8c, 0x01, 0xcc, 0x86, 0x8c,
   0x79, 0x7c, 0x06, 0x8c, 0x01, 0xcc, 0xe6, 0x8c, 0x79, 0xcc, 0xc6, 0x8c,
   0x01, 0xcc, 0xc4, 0x8c, 0x79, 0x7e, 0xb8, 0x9e, 0x01, 0x00, 0x00, 0x80,
   0x01, 0x00, 0x00, 0x80, 0x01, 0x00, 0x00, 0x80, 0x01, 0x00, 0x00, 0x80,
   0x01, 0x00, 0x00, 0x80, 0xff, 0xff, 0xff, 0xff};
