#define xbgi_c_width 48
#define xbgi_c_height 48
static char xbgi_c_bits[] = {
   0xff, 0xff, 0xff, 0xff, 0xff, 0xff, 0x01, 0x00, 0x00, 0x00, 0x00, 0x80,
   0x01, 0x00, 0x00, 0x00, 0x00, 0x80, 0x01, 0x00, 0x00, 0x00, 0x00, 0x80,
   0xe1, 0xf3, 0x01, 0x00, 0x00, 0x80, 0xc1, 0xc1, 0x00, 0x00, 0x00, 0x80,
   0x81, 0x43, 0x00, 0x00, 0x00, 0x80, 0x01, 0x27, 0x80, 0x1f, 0xae, 0x87,
   0x01, 0x1f, 0x00, 0x33, 0x31, 0x83, 0x01, 0x1e, 0x00, 0xb3, 0x21, 0x83,
   0x01, 0x1e, 0x1e, 0x9f, 0x01, 0x83, 0x01, 0x3e, 0x00, 0xb3, 0x39, 0x83,
   0x01, 0x79, 0x00, 0xb3, 0x31, 0x83, 0x81, 0x70, 0x00, 0x33, 0x31, 0x83,
   0xc1, 0xe0, 0x80, 0x1f, 0xae, 0x87, 0xe1, 0xf3, 0x01, 0x00, 0x00, 0x80,
   0x01, 0x00, 0x00, 0x00, 0x00, 0x80, 0x01, 0x00, 0x00, 0x00, 0x00, 0x80,
   0x01, 0x00, 0x00, 0x00, 0x00, 0x80, 0xf9, 0xff, 0xff, 0xff, 0xff, 0x9f,
   0x09, 0x00, 0x00, 0x00, 0x00, 0x90, 0x69, 0x00, 0x00, 0x00, 0x00, 0x96,
   0x09, 0x00, 0x00, 0x00, 0x00, 0x90, 0xf9, 0xff, 0xff, 0xff, 0xff, 0x9f,
   0xa9, 0xaa, 0xaa, 0xaa, 0xaa, 0x9a, 0x59, 0x55, 0x55, 0x55, 0x55, 0x95,
   0xa9, 0xaa, 0xaa, 0xaa, 0xaa, 0x9a, 0x59, 0x55, 0x55, 0x55, 0x55, 0x95,
   0xa9, 0xaa, 0xaa, 0xaa, 0xaa, 0x9a, 0x59, 0x55, 0x55, 0x55, 0x55, 0x95,
   0xa9, 0xaa, 0xaa, 0xaa, 0xaa, 0x9a, 0x59, 0x55, 0x55, 0x55, 0x55, 0x95,
   0xa9, 0xaa, 0xaa, 0xaa, 0xaa, 0x9a, 0x59, 0x55, 0x55, 0x55, 0x55, 0x95,
   0xa9, 0xaa, 0xaa, 0xaa, 0xaa, 0x9a, 0x59, 0x55, 0x55, 0x55, 0x55, 0x95,
   0xa9, 0xaa, 0xaa, 0xaa, 0xaa, 0x9a, 0x59, 0x55, 0x55, 0x55, 0x55, 0x95,
   0xa9, 0xaa, 0xaa, 0xaa, 0xaa, 0x9a, 0x59, 0x55, 0x55, 0x55, 0x55, 0x95,
   0xa9, 0xaa, 0xaa, 0xaa, 0xaa, 0x9a, 0x59, 0x55, 0x55, 0x55, 0x55, 0x95,
   0xa9, 0xaa, 0xaa, 0xaa, 0xaa, 0x9a, 0xf9, 0xff, 0xff, 0xff, 0xff, 0x9f,
   0x01, 0x00, 0x00, 0x00, 0x00, 0x80, 0x01, 0x00, 0x00, 0x00, 0x00, 0x80,
   0x01, 0x00, 0x00, 0x00, 0x00, 0x80, 0xff, 0xff, 0xff, 0xff, 0xff, 0xff};
